<?xml version="1.0" encoding="UTF-8" standalone="no"?>
<!-- Created with Inkscape (http://www.inkscape.org/) -->

<svg
   width="200"
   height="150"
   viewBox="0 0 52.916665 39.6875"
   version="1.1"
   id="svg1"
   xml:space="preserve"
   inkscape:version="1.3.1 (9b9bdc1480, 2023-11-25, custom)"
   sodipodi:docname="click.svg"
   xmlns:inkscape="http://www.inkscape.org/namespaces/inkscape"
   xmlns:sodipodi="http://sodipodi.sourceforge.net/DTD/sodipodi-0.dtd"
   xmlns="http://www.w3.org/2000/svg"
   xmlns:svg="http://www.w3.org/2000/svg"><sodipodi:namedview
     id="namedview1"
     pagecolor="#505050"
     bordercolor="#eeeeee"
     borderopacity="1"
     inkscape:showpageshadow="0"
     inkscape:pageopacity="0"
     inkscape:pagecheckerboard="0"
     inkscape:deskcolor="#505050"
     inkscape:document-units="px"
     inkscape:zoom="1.8814815"
     inkscape:cx="294.98031"
     inkscape:cy="87.165354"
     inkscape:window-width="1366"
     inkscape:window-height="731"
     inkscape:window-x="0"
     inkscape:window-y="0"
     inkscape:window-maximized="1"
     inkscape:current-layer="layer1"
     showgrid="false" /><defs
     id="defs1" /><g
     inkscape:label="Layer 1"
     inkscape:groupmode="layer"
     id="layer1"><g
       id="g1"
       transform="matrix(-1.3667412,-1.5405078,-1.5523401,1.3563237,270.22831,-97.353913)"
       style="fill:#000000;stroke:#030303;stroke-width:0.472886;stroke-dasharray:none;stroke-opacity:1"><path
         style="fill:#000000;stroke:#030303;stroke-width:0.472886;stroke-dasharray:none;stroke-opacity:1"
         d="m 33.15651,138.29694 c -0.458178,-0.38553 -1.178248,-1.42732 -1.600157,-2.3151 -0.421909,-0.88778 -1.3145,-2.26898 -1.983536,-3.06935 -1.743576,-2.08583 -2.661214,-3.46406 -2.866251,-4.3049 -0.178017,-0.73004 0.170525,-1.73124 0.733565,-2.10719 0.605551,-0.40434 1.935148,-0.18252 2.819404,0.47036 l 0.911299,0.67284 0.132292,-5.07657 c 0,0 -0.204674,-3.38692 0.362725,-4.93607 0.0968,-0.26428 0.200002,-0.27498 0.496639,-0.68283 0.296637,-0.40785 0.870348,-0.49194 1.449585,-0.28823 1.048985,0.3689 1.386902,1.27994 1.391317,3.75103 l 0.0039,2.18281 h 0.906838 c 0.660003,0 1.05321,0.18608 1.444587,0.68364 0.295762,0.376 0.668358,0.60292 0.827991,0.50426 0.45422,-0.28072 1.514636,0.0837 2.113225,0.72619 0.393173,0.42202 0.791033,0.56354 1.429612,0.50852 0.697704,-0.0601 1.003695,0.0749 1.446911,0.63835 1.020708,1.29762 0.700226,7.26471 -0.519721,9.67676 -1.143266,2.26044 -3.833653,3.66645 -7.015707,3.66645 -1.400373,0 -1.77813,-0.10658 -2.484519,-0.70097 z m 4.020572,-0.12538 c 1.848502,-0.3918 3.160762,-1.07799 4.024432,-2.10441 1.244752,-1.4793 1.53163,-2.52754 1.67711,-6.12808 0.147352,-3.64687 0.0028,-4.17033 -1.151813,-4.17033 -0.69441,0 -0.849015,0.39404 -0.961838,2.4514 -0.11792,2.15031 -0.58929,1.54354 -0.730597,-0.94045 -0.135585,-2.3834 -0.348756,-2.82061 -1.379754,-2.82981 -0.666331,-0.006 -1.001496,0.82806 -1.001496,2.49209 0,0.80994 -0.119063,1.47261 -0.264583,1.47261 -0.153801,0 -0.264584,-0.86509 -0.264584,-2.0661 0,-2.33731 -0.331975,-3.06193 -1.33774,-2.91997 -0.599296,0.0846 -0.65632,0.22535 -0.778926,1.92262 -0.0801,1.10884 -0.260387,1.87353 -0.456975,1.93826 -0.246829,0.0813 -0.341994,-1.04888 -0.396875,-4.71321 -0.06373,-4.25506 -0.126473,-4.85434 -0.535213,-5.11191 -0.337457,-0.21265 -0.588584,-0.21264 -0.926041,4e-5 -0.412186,0.25979 -0.470905,0.88336 -0.534832,5.67963 -0.0395,2.96329 -0.165498,5.48149 -0.280005,5.59599 -0.114507,0.11451 -0.848963,-0.26988 -1.632125,-0.8542 -1.415796,-1.05632 -2.211451,-1.18197 -2.708362,-0.42768 -0.514883,0.78157 -0.01562,1.75505 2.425419,4.72922 0.869141,1.05896 1.869668,2.57808 2.223394,3.37582 0.688344,1.5524 1.252501,2.19327 2.297889,2.61037 0.868204,0.3464 1.050866,0.34627 2.693515,-0.002 z m -8.7965,-16.92339 c -0.344946,-0.64454 -0.37428,-0.60671 0.770124,-0.99323 1.257894,-0.42485 1.525346,-0.11308 0.669406,0.78033 -0.87309,0.91131 -1.051621,0.93771 -1.43953,0.2129 z m 8.084563,-0.23917 c -0.416799,-0.43504 -0.688791,-0.86001 -0.604427,-0.94438 0.181008,-0.181 2.325448,0.42415 2.31316,0.65277 -0.01133,0.21081 -0.68064,1.0826 -0.831148,1.0826 -0.06587,0 -0.460786,-0.35594 -0.877585,-0.79099 z m -8.866185,-2.49447 c 0,-0.67225 0.04912,-0.69853 0.992187,-0.53089 0.984393,0.17498 1.600828,0.51778 1.361491,0.75712 -0.06852,0.0685 -0.626132,0.20479 -1.239132,0.30281 -1.076157,0.17208 -1.114546,0.15386 -1.114546,-0.52904 z m 9.19427,0.45725 c -0.475952,-0.12438 -0.616486,-0.49263 -0.264583,-0.6933 0.10914,-0.0622 0.644922,-0.19372 1.190625,-0.29218 0.933546,-0.16845 0.992187,-0.13923 0.992187,0.49441 0,0.56572 -0.116389,0.66854 -0.727604,0.64276 -0.400182,-0.0169 -0.935964,-0.0851 -1.190625,-0.15169 z m -7.739062,-2.12295 c -0.821172,-0.19752 -1.001639,-0.49862 -0.670122,-1.11806 l 0.304941,-0.56979 0.891093,0.73982 c 0.4901,0.4069 0.899688,0.82912 0.910194,0.93826 0.02045,0.21243 -0.576636,0.2165 -1.436106,0.01 z m 6.746875,-0.0567 c 0,-0.13498 0.385301,-0.54695 0.856226,-0.91551 l 0.856226,-0.6701 0.319134,0.58478 c 0.284671,0.52162 0.242209,0.6192 -0.393205,0.90357 -0.862174,0.38585 -1.638381,0.43193 -1.638381,0.0973 z m -5.133566,-1.57638 c -0.642831,-0.67378 -0.712986,-0.87113 -0.430623,-1.21136 0.185523,-0.22354 0.444747,-0.40644 0.576051,-0.40644 0.323245,0 0.797507,1.30069 0.700665,1.92162 -0.0688,0.44112 -0.170075,0.40475 -0.846093,-0.30382 z m 3.98728,0.57061 c -0.176475,-0.28554 0.354752,-2.18841 0.610941,-2.18841 0.09329,0 0.400738,0.17217 0.683212,0.3826 0.498691,0.3715 0.489602,0.40685 -0.313332,1.21871 -0.454808,0.45986 -0.896178,0.72406 -0.980821,0.5871 z m -1.854001,-0.79935 c -0.488917,-1.80339 -0.475918,-1.91823 0.217121,-1.91823 0.515866,0 0.665682,0.13455 0.662886,0.59532 -0.0088,1.44743 -0.60376,2.34186 -0.880007,1.32291 z"
         id="path1"
         sodipodi:nodetypes="ssssssccszsscsssssssssscssssscssssssssssssssssccssssssssssssssccsssccscssccsscssssssssssssssssss" /></g><path
       style="fill:#ffffff;fill-opacity:1;stroke:#fefefe;stroke-width:0.985593;stroke-dasharray:none;stroke-opacity:1"
       d="m 9.2782165,38.610906 c 1.2367245,0.185358 3.8636625,-0.122415 5.8376585,-0.683954 1.973995,-0.561539 5.371103,-1.066482 7.549154,-1.122118 5.676198,-0.144972 9.103219,-0.606735 10.704309,-1.4423 1.390108,-0.725463 2.478541,-2.645566 2.290785,-4.041174 -0.201924,-1.500987 -2.384731,-3.271639 -4.628618,-3.75467 l -2.312501,-0.497813 7.775456,-7.183624 c 0,0 5.591831,-4.335402 7.23717,-7.350232 0.280684,-0.514326 0.15502,-0.690131 0.384955,-1.713724 C 44.34652,9.7977043 43.686516,8.7865639 42.567729,8.1623425 40.541654,7.0318724 38.647119,7.7564914 34.76734,11.145805 l -3.427161,2.993913 -1.251598,-1.415584 C 29.177659,11.693862 28.343263,11.335805 27.023117,11.408696 26.025494,11.463773 25.155525,11.19402 25.089862,10.809235 24.903015,9.7143783 22.868186,8.559907 21.034857,8.5085255 19.830649,8.4747921 19.059684,8.0482298 18.26458,6.9757827 17.395837,5.804059 16.761888,5.5119443 15.266906,5.5944712 11.823994,5.784552 2.9122929,14.485851 0.81490254,19.705265 -1.1506571,24.59661 0.35849297,30.72872 4.7502958,35.695942 c 1.9327648,2.185998 2.621212,2.6292 4.5279221,2.914966 z M 3.9256551,32.162429 C 1.9885787,28.738416 1.2530986,25.746881 1.6700981,22.987996 2.2710721,19.01181 3.5183527,17.123315 8.9617791,11.947724 14.475248,6.7055367 15.495333,6.2117532 17.088905,8.0141171 c 0.95841,1.0839818 0.554095,1.8668812 -2.515312,4.8705839 -3.20808,3.139408 -1.606331,3.041292 2.482606,-0.152061 3.923355,-3.0640377 4.90294,-3.3321658 6.340324,-1.735411 0.929061,1.031904 0.08417,2.701412 -2.524363,4.988414 -1.269664,1.113162 -2.144138,2.209779 -1.943295,2.436937 0.212273,0.240085 1.72129,-0.77594 3.603996,-2.426579 3.663973,-3.212342 5.258074,-3.690026 6.423672,-1.924909 0.694517,1.05178 0.55258,1.334239 -1.938846,3.858315 -1.627668,1.648999 -2.57757,2.981401 -2.407714,3.37724 0.213222,0.49704 2.116239,-0.907699 7.936197,-5.858195 6.758201,-5.7485677 7.78423,-6.4742607 8.752132,-6.1902109 0.799101,0.2345132 1.145686,0.6265392 1.278039,1.4456149 0.161643,1.000476 -0.734824,1.949157 -8.165238,8.640824 -4.590743,4.134334 -8.364379,7.791971 -8.385829,8.128084 -0.02147,0.336126 1.594785,0.954324 3.591669,1.373774 3.609941,0.758292 4.905057,1.827629 4.408456,3.63999 -0.514561,1.877909 -2.729662,2.436481 -10.761048,2.713619 -2.859598,0.09867 -6.62188,0.624678 -8.360624,1.168902 -3.383583,1.059068 -5.1668497,1.059209 -7.2635186,5.99e-4 C 5.8989144,35.490455 5.647012,35.205139 3.9258118,32.162292 Z M 42.595541,22.634768 c 1.486469,-0.347375 1.467653,-0.249592 0.494081,-2.567243 -1.070123,-2.54749 -1.927986,-2.536497 -2.147147,0.02752 -0.223552,2.615386 -0.01853,2.930358 1.653066,2.539727 z M 31.812324,9.6859653 c 1.257226,0.05272 2.298808,-0.106766 2.314629,-0.3544153 0.03391,-0.5313175 -3.874432,-3.0471089 -4.215858,-2.7137174 -0.314829,0.3074184 -0.757681,2.5503858 -0.549953,2.7853304 0.09091,0.1028243 1.193939,0.2300973 2.451182,0.2828023 z M 47.959579,20.09784 c 1.053821,-0.923924 1.027223,-1.036719 -0.537171,-2.278457 -1.632937,-1.29616 -3.021101,-1.787286 -3.065963,-1.084735 -0.01281,0.201105 0.543144,1.258857 1.235537,2.350473 1.215536,1.916396 1.297082,1.951281 2.367597,1.012719 z M 34.553058,6.3739156 C 35.404936,6.9459372 36.176167,6.6591985 36.005049,5.834078 35.951919,5.578223 35.418617,4.5611034 34.819796,3.5739339 33.795398,1.8851446 33.668658,1.8337646 32.675362,2.704624 c -0.886824,0.7775118 -0.887367,1.1005096 -0.0034,2.0191917 0.578815,0.6014616 1.4252,1.3440909 1.881064,1.6500999 z m 14.009229,9.1630314 c 1.442997,1.010392 2.164079,0.878278 2.677562,-0.490567 l 0.472331,-1.259122 -2.389611,-0.374215 c -1.314283,-0.205818 -2.541461,-0.264901 -2.727049,-0.131301 -0.36123,0.260036 0.456475,1.197687 1.966407,2.255521 z M 39.339278,4.9270726 c 0.211595,-0.1855132 0.325616,-1.3531739 0.253411,-2.594833 L 39.461394,0.07469206 38.10423,0.38022774 c -1.21059,0.2725272 -1.304951,0.4729225 -0.873745,1.85564206 0.585094,1.8761661 1.584164,3.1511651 2.10873,2.6912578 z m 9.556375,5.8470154 c 1.94344,0.07744 2.349633,-0.08428 2.493267,-0.9926557 0.09437,-0.5968319 0.02331,-1.2528567 -0.157917,-1.4578238 -0.446136,-0.504589 -3.139667,0.5427194 -3.979379,1.5472818 -0.596544,0.7136617 -0.399753,0.8217677 1.644029,0.9031977 z M 42.498005,5.3341321 C 43.189185,5.2171723 45.43894,1.7726627 45.085354,1.3727488 44.956597,1.2271221 44.26237,0.98381864 43.542634,0.83208344 42.271987,0.56420174 42.229117,0.62697394 42.064636,2.9961635 c -0.09316,1.3419808 0.101847,2.3940744 0.433369,2.3379686 z M 46.30992,7.1296412 C 49.811711,5.4143107 49.973794,5.2361858 49.017276,4.1543442 48.305289,3.3490716 47.887595,3.3001294 47.16915,3.937765 44.912301,5.9408146 44.331342,8.0988366 46.30992,7.1296412 Z"
       id="path8848"
       sodipodi:nodetypes="ssssssccszsscsssssssssscssssscssssssssssssssssccssssssssssssssccsssccscssccsscssssssssssssssssss" /></g></svg>
