<?xml version="1.0" encoding="UTF-8" standalone="no"?>
<svg
   width="181"
   height="181"
   viewBox="0 0 135.74999 135.74999"
   version="1.1"
   id="svg70"
   sodipodi:docname="whats.svg"
   inkscape:version="1.3.1 (9b9bdc1480, 2023-11-25, custom)"
   xmlns:inkscape="http://www.inkscape.org/namespaces/inkscape"
   xmlns:sodipodi="http://sodipodi.sourceforge.net/DTD/sodipodi-0.dtd"
   xmlns="http://www.w3.org/2000/svg"
   xmlns:svg="http://www.w3.org/2000/svg">
  <sodipodi:namedview
     id="namedview70"
     pagecolor="#505050"
     bordercolor="#eeeeee"
     borderopacity="1"
     inkscape:showpageshadow="0"
     inkscape:pageopacity="0"
     inkscape:pagecheckerboard="0"
     inkscape:deskcolor="#505050"
     inkscape:document-units="px"
     showgrid="false"
     inkscape:zoom="1.3970003"
     inkscape:cx="357.19391"
     inkscape:cy="153.90118"
     inkscape:window-width="1366"
     inkscape:window-height="731"
     inkscape:window-x="0"
     inkscape:window-y="0"
     inkscape:window-maximized="1"
     inkscape:current-layer="svg70" />
  <defs
     id="defs67">
    <clipPath
       id="clip1">
      <path
         d="M 109,101 H 464 V 456 H 109 Z m 0,0"
         id="path1" />
    </clipPath>
    <clipPath
       id="clip2">
      <path
         d="m 109.60547,278.02344 c 0,57.25 34.5,104.99218 34.5,104.99218 l -21.60156,64.42969 66.55078,-21.71094 c 0,0 43.35937,29.28125 97.53906,29.28125 97.74219,0 176.98047,-79.24218 176.98047,-176.99218 0,-97.73828 -79.23828,-176.98047 -176.98047,-176.98047 -97.75,0 -176.98828,79.24219 -176.98828,176.98047 m 223.89844,98.4414 c -12.59766,-3.51953 -54.26172,-14.41797 -81.41797,-39.75 -27.17188,-25.33984 -49.17188,-52.01172 -58.17188,-71.66797 -9,-19.67187 -8.5,-31.34375 -8,-36.84375 0.5,-5.5 3.39063,-30.98046 20.44922,-41.89843 0,0 5.69141,-3.60938 8.66016,-3.60938 H 231.625 c 0,0 4.44922,0.76953 6.48828,5.41016 2.03906,4.63672 16.04297,37.51953 17.08203,40.05078 1.03906,2.53906 3.75781,8.81641 -0.60156,14.4375 -4.35938,5.62109 -13.46875,16.12109 -13.46875,16.12109 0,0 -3.60938,3.23828 -0.48047,8.42188 3.12109,5.16797 14.12109,22.22656 28.5,35.11719 14.39063,12.89062 32,22.37109 40.78125,25.26171 8.77734,2.89063 10.71094,-0.96093 14.07031,-5.29296 3.36719,-4.32813 13.83985,-17.5586 13.83985,-17.5586 0,0 3.60937,-5.30078 10.69922,-2.05078 7.10156,3.25 41.62109,19.97266 41.62109,19.97266 0,0 4.21094,0.71875 4.44922,5.41015 0.23828,4.6875 3.1289,18.72657 -9.38281,32.22657 -10.19922,11.01953 -29.77735,17.21093 -43.48829,17.20703 -3.10156,0 -5.90625,-0.31641 -8.23046,-0.96485"
         id="path2" />
    </clipPath>
  </defs>
  <g
     id="g35"
     transform="translate(-7.4838625,-8.4487111)">
    <path
       style="fill:#000000;fill-opacity:1;fill-rule:nonzero;stroke:none;stroke-width:0.314971"
       d="m 76.344367,130.35599 c -17.063799,0 -30.721972,-9.22152 -30.721972,-9.22152 l -20.960333,6.83954 6.801403,-20.29347 c 0,0 -10.864033,-15.03987 -10.864033,-33.069497 0,-30.787178 24.957754,-55.744934 55.744935,-55.744934 30.787183,0 55.744943,24.957756 55.744943,55.744934 0,30.787187 -24.95776,55.744947 -55.744943,55.744947 m 0,-122.1078478 c -36.651054,0 -66.3629031,29.7118488 -66.3629031,66.3629008 0,18.190804 9.6299921,34.449947 9.6299921,34.449947 L 8.0104349,144.39927 44.372354,132.77856 c 0,0 13.499456,8.1954 31.972013,8.1954 36.651053,0 66.362913,-29.71186 66.362913,-66.362917 0,-36.651052 -29.71186,-66.3629008 -66.362913,-66.3629008"
       id="path27" />
    <path
       style="fill:#ffffff;fill-opacity:1;fill-rule:nonzero;stroke:none;stroke-width:0.309252"
       d="m 76.326478,129.37496 c -16.753984,0 -30.164177,-9.05408 -30.164177,-9.05408 l -20.579774,6.71536 6.677916,-19.92502 c 0,0 -10.666785,-14.7668 -10.666785,-32.469078 0,-30.228201 24.504618,-54.73282 54.73282,-54.73282 30.228202,0 54.732822,24.504619 54.732822,54.73282 0,30.228208 -24.50462,54.732818 -54.732822,54.732818 m 0,-119.8908229 c -35.98561,0 -65.158006,29.1723949 -65.158006,65.1580049 0,17.860528 9.455148,33.824468 9.455148,33.824468 L 9.2332291,143.16327 44.934956,131.75355 c 0,0 13.254358,8.0466 31.391522,8.0466 35.985612,0 65.158002,-29.1724 65.158002,-65.158008 0,-35.98561 -29.17239,-65.1580049 -65.158002,-65.1580049"
       id="path68" />
    <g
       clip-path="url(#clip1)"
       clip-rule="nonzero"
       id="g70"
       transform="matrix(0.30925228,0,0,0.30925228,-12.303293,-11.338447)"
       style="fill:#01b142;fill-opacity:1">
      <g
         clip-path="url(#clip2)"
         clip-rule="nonzero"
         id="g69"
         style="fill:#01b142;fill-opacity:1">
        <path
           style="fill:#01b142;fill-opacity:1;fill-rule:nonzero;stroke:none"
           d="M 439.86328,543.50781 21.113281,431.30469 133.31641,12.550781 552.07031,124.75391 Z m 0,0"
           id="path69" />
      </g>
    </g>
    <path
       style="fill:#ffffff;fill-opacity:1;fill-rule:nonzero;stroke:none;stroke-width:0.309252"
       d="m 109.72935,90.095092 c 0.0737,1.44962 0.96762,5.791234 -2.90166,9.966138 -3.86807,4.17853 -12.097077,6.11136 -15.994138,5.02293 C 86.937696,103.99574 74.054197,100.62537 65.654859,92.791385 57.251893,84.954982 50.448343,76.706642 47.665072,70.626696 c -2.78327,-6.082365 -2.628644,-9.69192 -2.474018,-11.392808 0.154626,-1.700887 1.04856,-9.580778 6.323968,-12.957185 0,0 1.760081,-1.116209 2.678174,-1.116209 h 5.13407 c 0,0 1.375932,0.237979 2.006516,1.673104 0.631793,1.433917 4.961325,11.603001 5.282656,12.384586 0.321332,0.78642 1.162112,2.727704 -0.186033,4.466039 -1.348149,1.738335 -4.165242,4.985484 -4.165242,4.985484 0,0 -1.116209,1.001446 -0.148586,2.603277 0.965204,1.599415 4.366979,6.874823 8.81369,10.86128 4.450335,3.986453 9.896073,6.91831 12.611694,7.812241 2.715622,0.893934 3.311174,-0.29717 4.351276,-1.63686 1.04252,-1.338484 4.280005,-5.430037 4.280005,-5.430037 0,0 1.116206,-1.639278 3.308758,-0.634208 2.194964,1.00507 12.87142,6.17659 12.87142,6.17659 0,0 1.30224,0.222276 1.37593,1.673102"
       id="path70" />
  </g>
  <g
     id="g34"
     transform="translate(561.77023,74.284035)">
    <path
       style="fill:#004000;fill-opacity:1;fill-rule:nonzero;stroke:none;stroke-width:0.309252"
       d="m 75.014111,131.02394 c -16.75398,0 -30.16418,-9.05409 -30.16418,-9.05409 l -20.57977,6.71537 6.67792,-19.92503 c 0,0 -10.66679,-14.766793 -10.66679,-32.469071 0,-30.228201 24.50462,-54.73282 54.73282,-54.73282 30.228199,0 54.732819,24.504619 54.732819,54.73282 0,30.228201 -24.50462,54.732821 -54.732819,54.732821 m 0,-119.890826 c -35.98561,0 -65.1580096,29.172395 -65.1580096,65.158005 0,17.860528 9.4551496,33.824461 9.4551496,33.824461 L 7.9208614,144.81224 43.622591,133.40252 c 0,0 13.25436,8.0466 31.39152,8.0466 35.985609,0 65.158009,-29.1724 65.158009,-65.158001 0,-35.98561 -29.1724,-65.158005 -65.158009,-65.158005"
       id="path30" />
    <g
       clip-path="url(#clip1)"
       clip-rule="nonzero"
       id="g32"
       transform="matrix(0.30925228,0,0,0.30925228,-13.615659,-9.6894703)">
      <g
         clip-path="url(#clip2)"
         clip-rule="nonzero"
         id="g31"
         style="fill:#01b142;fill-opacity:1">
        <path
           style="fill:#01b142;fill-opacity:1;fill-rule:nonzero;stroke:none"
           d="M 439.86328,543.50781 21.113281,431.30469 133.31641,12.550781 552.07031,124.75391 Z m 0,0"
           id="path31" />
      </g>
    </g>
    <path
       style="fill:#ffffff;fill-opacity:1;fill-rule:nonzero;stroke:none;stroke-width:0.309252"
       d="m 108.41698,91.744069 c 0.0737,1.44962 0.96762,5.791234 -2.90165,9.966141 -3.86808,4.17852 -12.097079,6.11135 -15.994149,5.02293 -3.89585,-1.08843 -16.77935,-4.45879 -25.17869,-12.292778 -8.40296,-7.836403 -15.20651,-16.084743 -17.98978,-22.164689 -2.78328,-6.082365 -2.62865,-9.69192 -2.47402,-11.392808 0.15462,-1.700887 1.04856,-9.580778 6.32396,-12.957185 0,0 1.76009,-1.116209 2.67818,-1.116209 h 5.13407 c 0,0 1.37593,0.237979 2.00651,1.673104 0.6318,1.433917 4.96133,11.603001 5.28266,12.384586 0.32133,0.78642 1.16211,2.727704 -0.18603,4.466039 -1.34815,1.738335 -4.16524,4.985484 -4.16524,4.985484 0,0 -1.11621,1.001446 -0.14859,2.603277 0.9652,1.599415 4.36698,6.874823 8.81369,10.86128 4.45033,3.986453 9.89607,6.91831 12.61169,7.812241 2.71563,0.893934 3.31118,-0.29717 4.35128,-1.63686 1.04252,-1.338484 4.28,-5.430037 4.28,-5.430037 0,0 1.11621,-1.639278 3.30876,-0.634208 2.19497,1.00507 12.871419,6.17659 12.871419,6.17659 0,0 1.30224,0.222276 1.37593,1.673102"
       id="path32" />
  </g>
</svg>
